# Blender 4.0.0
# www.blender.org
mtllib temp.mtl
o Mesh_0
v -0.318572 0.061931 -0.682774
v 0.237241 0.435327 -0.573203
v -0.130216 0.208977 -0.726635
v 0.106773 0.262020 -0.630956
v -0.070436 -0.041189 -0.657925
v -0.388755 0.448817 -0.490038
v 0.270958 0.327911 -0.558309
v -0.525750 0.325086 -0.379741
v -0.425061 0.201632 -0.622958
v -0.007318 0.411234 -0.589563
v 0.242085 0.503207 -0.464901
v 0.185445 -0.026036 -0.426179
v 0.491775 0.345934 -0.382733
v 0.115806 0.054908 -0.608483
v -0.035523 0.634055 -0.358575
v 0.273555 0.638679 -0.393569
v -0.245270 0.432777 -0.614614
v -0.381699 -0.145608 -0.449649
v -0.012187 -0.191472 -0.429600
v 0.300345 0.008256 -0.310133
v 0.540626 0.617890 -0.125934
v 0.563088 0.182907 -0.131267
v 0.098851 0.812761 -0.185281
v -0.249565 -0.171435 -0.213525
v -0.512208 0.026409 -0.444470
v 0.442535 -0.010387 0.043205
v -0.161307 -0.916328 -0.151688
v 0.027757 -0.925366 -0.178330
v -0.550794 0.135680 -0.132417
v -0.179484 -0.958751 -0.109479
v 0.007602 -0.976397 -0.132936
v -0.080822 -0.221986 -0.077125
v -0.095711 -0.152885 -0.160945
v 0.135768 -0.107924 -0.182722
v 0.302264 0.781096 -0.198989
v 0.266179 -0.084043 -0.154416
v 0.003540 -0.555460 -0.111678
v 0.039466 -0.396938 0.005770
v -0.155910 -0.141484 -0.049447
v -0.335910 -0.043162 -0.032487
v -0.506658 0.323939 -0.102281
v -0.448277 -0.086137 -0.139028
v -0.227921 -0.903480 -0.003720
v 0.606251 0.281237 0.078948
v 0.590562 0.377614 -0.175480
v 0.032352 -0.197108 -0.069985
v 0.120138 -0.944845 -0.082073
v -0.155434 -0.175377 0.147621
v 0.577396 0.534596 0.056035
v -0.093145 0.768280 -0.095257
v -0.008320 -0.211800 0.072573
v -0.115713 -0.201454 -0.014186
v -0.220490 -0.034421 0.057493
v -0.459595 0.083079 -0.031745
v 0.168595 0.885509 0.047457
v 0.043429 -0.106948 0.067795
v 0.121203 -0.919155 0.074748
v -0.279264 0.604387 -0.099797
v -0.306591 0.469247 0.227812
v -0.021990 -0.918693 0.169692
v -0.155831 -0.966085 0.091440
v 0.048601 -0.975062 0.087489
v -0.174665 -0.910872 0.123785
v -0.124526 -0.342329 0.001295
v -0.044940 -0.364438 0.069504
v 0.185716 0.010430 0.334350
v -0.409158 0.508719 -0.047479
v 0.230815 -0.080109 0.134001
v -0.487684 0.200574 0.150538
v 0.380767 0.774977 0.043967
v -0.147950 -0.122085 0.191752
v -0.485151 0.106504 0.107050
v -0.427854 -0.066287 0.285094
v -0.046921 -0.142859 0.252998
v -0.128795 -0.159435 0.264167
v -0.309273 -0.090016 0.166587
v -0.171722 -0.156908 0.383715
v -0.201683 0.670462 0.191144
v -0.470105 0.086206 0.456322
v 0.211395 0.424397 0.478643
v 0.369391 0.664137 0.301919
v 0.497267 0.481115 0.310364
v 0.020063 -0.089486 0.479428
v 0.148351 -0.061337 0.216824
v 0.455614 0.235758 0.329213
v -0.116196 0.318031 0.618481
v -0.207115 0.478476 0.347161
v -0.002308 0.642339 0.370887
v -0.280245 -0.073962 0.546713
v 0.153100 0.173979 0.476208
v 0.042976 0.365199 0.509353
v -0.019309 0.087757 0.637798
v -0.389230 0.339192 0.501567
v -0.287057 0.078304 0.619842
vn -0.0150 -0.2681 -0.9633
vn -0.3314 0.1465 -0.9321
vn 0.3889 -0.0826 -0.9176
vn 0.3356 -0.1741 -0.9258
vn -0.2217 -0.6977 -0.6812
vn 0.2524 0.4331 -0.8653
vn -0.6477 -0.4735 -0.5969
vn -0.7236 -0.2818 -0.6300
vn 0.4046 0.0002 -0.9145
vn 0.1353 0.4982 -0.8564
vn -0.3243 0.2848 -0.9021
vn 0.0352 0.2920 -0.9558
vn -0.0755 -0.8417 -0.5347
vn 0.4921 -0.6642 -0.5627
vn -0.5539 0.4560 -0.6967
vn 0.4297 -0.0789 -0.8995
vn -0.9146 0.0456 -0.4018
vn -0.7648 0.3887 -0.5139
vn -0.0242 0.7180 -0.6956
vn 0.9409 0.2664 -0.2090
vn 0.1368 0.7212 -0.6790
vn 0.6187 -0.2126 -0.7563
vn -0.0141 0.4684 -0.8834
vn 0.1884 0.8283 -0.5276
vn 0.5590 -0.6573 -0.5054
vn 0.6959 -0.4963 -0.5191
vn -0.1057 0.4824 -0.8696
vn -0.2845 0.8530 -0.4375
vn 0.6892 -0.5174 -0.5072
vn -0.1209 -0.9918 -0.0408
vn -0.7188 0.6838 -0.1257
vn 0.5546 0.3861 -0.7371
vn 0.9193 0.3386 -0.2008
vn 0.4252 -0.8165 -0.3907
vn -0.3748 0.8926 -0.2507
vn 0.2295 -0.9357 -0.2679
vn 0.1390 -0.9603 0.2417
vn 0.6381 -0.7597 -0.1253
vn 0.6464 0.4593 -0.6093
vn 0.5829 0.6123 -0.5341
vn -0.0880 0.7268 -0.6812
vn -0.7962 -0.6024 -0.0553
vn 0.8939 -0.2154 -0.3931
vn 0.8527 0.2695 -0.4476
vn -0.4065 0.7750 -0.4840
vn -0.3605 -0.9274 0.1003
vn -0.9068 -0.4201 0.0350
vn -0.9931 -0.0199 -0.1158
vn 0.0840 0.7981 -0.5966
vn -0.6219 0.7717 -0.1331
vn -0.8903 0.4510 0.0631
vn -0.5778 0.6691 -0.4675
vn 0.1732 -0.9711 -0.1641
vn 0.6274 -0.7225 -0.2906
vn 0.6619 -0.6859 -0.3025
vn -0.1380 -0.6273 -0.7665
vn -0.1297 0.1676 -0.9773
vn 0.1235 0.9360 -0.3296
vn -0.9123 -0.0163 -0.4093
vn -0.1544 -0.6628 -0.7327
vn -0.9737 0.2174 0.0679
vn -0.0970 -0.9950 -0.0249
vn 0.4505 -0.6861 -0.5712
vn -0.8968 0.1487 -0.4167
vn 0.0102 0.1056 -0.9944
vn -0.7429 -0.5753 -0.3423
vn 0.0873 -0.7610 -0.6429
vn 0.2174 -0.8527 -0.4751
vn 0.5918 0.7876 -0.1714
vn 0.7280 0.1674 -0.6648
vn 0.0379 0.1125 -0.9929
vn 0.1727 -0.9844 0.0346
vn 0.9724 -0.0517 -0.2277
vn -0.3085 0.9303 -0.1983
vn 0.8227 0.2061 -0.5298
vn -0.0870 -0.8320 0.5480
vn -0.4846 -0.8572 -0.1740
vn -0.5947 -0.2971 0.7470
vn -0.7241 0.0598 0.6871
vn 0.9784 -0.1660 -0.1232
vn -0.8744 0.0014 -0.4852
vn -0.5202 0.1461 0.8415
vn -0.7499 -0.6269 -0.2112
vn 0.1244 -0.9910 0.0497
vn -0.1674 -0.8403 0.5156
vn 0.4568 0.8807 -0.1254
vn -0.6956 -0.7163 0.0557
vn -0.6870 -0.6747 0.2698
vn 0.8680 -0.4938 0.0527
vn 0.9936 0.1114 -0.0191
vn 0.7871 -0.5433 0.2922
vn -0.9635 -0.2289 -0.1388
vn 0.2897 -0.9559 -0.0481
vn 0.6189 -0.7758 0.1229
vn -0.9499 0.1773 -0.2573
vn 0.9881 0.1505 -0.0314
vn -0.9693 0.0339 -0.2434
vn -0.2939 -0.6577 0.6935
vn -0.9975 -0.0501 0.0504
vn 0.9706 0.2213 -0.0948
vn -0.6609 0.7504 0.0058
vn 0.7637 0.6314 0.1347
vn 0.3330 -0.9414 0.0537
vn 0.9480 0.1418 0.2851
vn 0.1846 0.9764 -0.1120
vn -0.5768 0.3190 0.7520
vn -0.2562 -0.8737 0.4136
vn -0.5079 -0.5017 0.7002
vn -0.0436 -0.9989 0.0142
vn -0.2537 -0.8604 0.4420
vn -0.1862 -0.8058 -0.5622
vn -0.7414 -0.6706 -0.0233
vn -0.8841 0.3903 0.2568
vn 0.7320 0.6136 0.2960
vn -0.4615 0.8783 0.1251
vn 0.8809 -0.4253 0.2075
vn 0.9704 0.2036 0.1298
vn -0.2172 0.6405 -0.7366
vn 0.0450 -0.9637 0.2632
vn 0.4880 -0.4655 0.7383
vn 0.5427 0.1929 0.8175
vn 0.3477 0.8982 -0.2688
vn -0.4851 0.8219 0.2986
vn -0.8704 0.4764 0.1239
vn -0.0260 -0.8347 0.5501
vn -0.8250 -0.4674 0.3175
vn -0.9069 0.1636 0.3883
vn -0.5992 0.2188 0.7701
vn -0.2767 0.1598 0.9476
vn 0.6337 0.1629 0.7562
vn -0.0906 -0.8556 -0.5097
vn 0.4475 -0.7728 0.4500
vn -0.8166 0.4446 0.3680
vn 0.3200 -0.6026 0.7311
vn -0.8856 -0.3879 0.2555
vn 0.2083 -0.7636 -0.6111
vn 0.9364 0.1359 0.3236
vn -0.2657 -0.5532 0.7895
vn -0.5802 -0.6730 0.4588
vn -0.9718 -0.0535 0.2295
vn 0.2087 -0.7684 -0.6050
vn 0.2513 -0.8596 0.4450
vn -0.9981 -0.0455 0.0404
vn 0.4337 0.8208 0.3718
vn -0.6375 -0.7404 -0.2133
vn -0.1618 -0.9673 -0.1955
vn -0.5897 -0.6661 -0.4567
vn 0.2279 -0.6198 0.7509
vn 0.7844 -0.4874 0.3836
vn -0.8309 0.5562 0.0134
vn -0.2954 -0.9496 -0.1054
vn 0.5492 -0.6457 0.5306
vn 0.7589 0.5466 0.3540
vn -0.4196 0.8624 0.2831
vn 0.8603 -0.1078 0.4982
vn 0.2101 -0.9730 0.0960
vn -0.6980 0.4634 0.5459
vn -0.3024 0.8318 0.4656
vn -0.9561 -0.2921 0.0242
vn -0.5155 0.5491 0.6578
vn 0.3987 -0.9119 0.0970
vn 0.5102 -0.0206 0.8598
vn 0.4270 0.3371 0.8391
vn 0.0699 0.7793 0.6228
vn 0.2618 -0.9538 0.1474
vn 0.6458 -0.7255 0.2377
vn 0.7274 -0.3610 0.5835
vn -0.6956 -0.6132 0.3745
vn 0.4558 -0.5296 0.7154
vn 0.4529 -0.1140 0.8842
vn 0.0771 0.8693 0.4882
vn 0.1238 0.5347 0.8360
vn -0.1688 0.8226 0.5430
vn -0.3931 -0.8985 0.1955
vn -0.3869 0.3608 0.8486
vn 0.0057 0.4477 0.8942
vn 0.7281 -0.3597 0.5836
vn 0.0638 -0.8716 0.4860
vn -0.9485 0.2751 0.1574
vn 0.1980 -0.0556 0.9786
vn 0.6074 0.2174 0.7641
vn 0.4871 0.2745 0.8291
vn -0.6304 -0.3588 0.6884
vn -0.6623 0.0784 0.7451
vn 0.1356 -0.6432 0.7536
vn -0.3624 0.2634 0.8940
vn -0.0450 -0.4341 0.8997
vn -0.0687 0.0546 0.9961
vt 0.736160 0.187863
vt 0.816265 0.136099
vt 0.741323 0.094234
vt 0.710978 0.427082
vt 0.707022 0.337977
vt 0.774957 0.333477
vt 0.663293 0.170388
vt 0.649586 0.099554
vt 0.363159 0.354846
vt 0.381883 0.470807
vt 0.301635 0.417181
vt 0.771294 0.504414
vt 0.705250 0.521827
vt 0.333496 0.513911
vt 0.000430 0.564393
vt 0.045915 0.659822
vt 0.063610 0.571561
vt 0.748617 0.583553
vt 0.713455 0.593660
vt 0.806666 0.430535
vt 0.448948 0.380133
vt 0.699920 0.278936
vt 0.860733 0.393106
vt 0.582785 0.096104
vt 0.139661 0.627405
vt 0.160020 0.560671
vt 0.877419 0.542268
vt 0.782939 0.603879
vt 0.488718 0.122568
vt 0.825246 0.631116
vt 0.622906 0.231342
vt 0.442973 0.215843
vt 0.562844 0.237804
vt 0.462315 0.482712
vt 0.258309 0.672382
vt 0.719226 0.692088
vt 0.550067 0.299900
vt 0.989243 0.481185
vt 0.501750 0.313683
vt 0.586402 0.359321
vt 0.548041 0.388251
vt 0.831249 0.757745
vt 0.888191 0.675306
vt 0.928953 0.622954
vt 0.435287 0.552918
vt 0.416985 0.156442
vt 0.358555 0.094234
vt 0.981185 0.570184
vt 0.065826 0.769856
vt 0.133011 0.725982
vt 0.292803 0.627001
vt 0.191602 0.700389
vt 0.510310 0.456566
vt 0.454462 0.311962
vt 0.725925 0.009962
vt 0.721112 0.076162
vt 0.744711 0.069609
vt 0.594471 0.049096
vt 0.989243 0.686983
vt 0.345115 0.101007
vt 0.360155 0.080977
vt 0.334008 0.046820
vt 0.746558 0.003873
vt 0.888377 0.874199
vt 0.954201 0.869149
vt 0.894125 0.944610
vt 0.994406 0.889792
vt 0.969417 0.848967
vt 0.101957 0.104561
vt 0.484410 0.003873
vt 0.523451 0.494905
vt 0.542743 0.469907
vt 0.562934 0.440529
vt 0.930617 0.750320
vt 0.865436 0.233038
vt 0.888695 0.371343
vt 0.843514 0.360783
vt 0.470310 0.041587
vt 0.662361 0.433435
vt 0.884620 0.109979
vt 0.908904 0.179440
vt 0.490311 0.556520
vt 0.096724 0.816436
vt 0.141250 0.773545
vt 0.365627 0.234047
vt 0.137518 0.066420
vt 0.091791 0.085239
vt 0.279260 0.223322
vt 0.255926 0.208474
vt 0.279260 0.142427
vt 0.070438 0.094748
vt 0.601141 0.473383
vt 0.356612 0.008179
vt 0.321429 0.156028
vt 0.929560 0.075258
vt 0.837780 0.070998
vt 0.182112 0.805348
vt 0.963523 0.944857
vt 0.994406 0.947515
vt 0.942158 0.359838
vt 0.064168 0.037184
vt 0.218268 0.795273
vt 0.364938 0.576936
vt 0.382366 0.689353
vt 0.419607 0.851825
vt 0.407854 0.743700
vt 0.348967 0.783493
vt 0.686317 0.348914
vt 0.935632 0.115069
vt 0.657917 0.326714
vt 0.715988 0.331756
vt 0.681064 0.284423
vt 0.243976 0.162177
vt 0.544178 0.553760
vt 0.454214 0.610347
vt 0.669182 0.475818
vt 0.566059 0.607424
vt 0.478838 0.657145
vt 0.503072 0.809067
vt 0.477194 0.560671
vt 0.999570 0.092569
vt 0.739106 0.325046
vt 0.940623 0.978916
vt 0.999570 0.345713
vt 0.749139 0.284423
vt 0.326230 0.748245
vt 0.332018 0.000430
vt 0.140529 0.028876
vt 0.045875 0.995267
vt 0.038296 0.940189
vt 0.231928 0.940189
vt 0.941930 0.160490
vt 0.609658 0.564740
vt 0.309380 0.337503
vt 0.181138 0.293266
vt 0.257014 0.271660
vt 0.184387 0.188987
vt 0.265999 0.109725
vt 0.309380 0.115404
vt 0.044958 0.000430
vt 0.266027 0.542599
vt 0.183425 0.491347
vt 0.293255 0.454941
vt 0.885112 0.966641
vt 0.041738 0.029057
vt 0.648819 0.548693
vt 0.217572 0.257546
vt 0.257742 0.905426
vt 0.452571 0.931158
vt 0.666437 0.613301
vt 0.640512 0.572573
vt 0.572839 0.670903
vt 0.165851 0.163504
vt 0.203807 0.409816
vt 0.341961 0.858618
vt 0.504554 0.734509
vt 0.676574 0.931020
vt 0.682945 0.986661
vt 0.774765 0.928095
vt 0.123741 0.166568
vt 0.602489 0.981701
vt 0.595534 0.890824
vt 0.174690 0.896234
vt 0.122004 0.239805
vt 0.089050 0.420396
vt 0.613333 0.783069
vt 0.052702 0.277444
vt 0.116780 0.334978
vt 0.605507 0.754303
vt 0.686317 0.692706
vt 0.735169 0.837055
vt 0.672349 0.814490
vt 0.050259 0.169354
vt 0.690648 0.734509
vt 0.775229 0.764724
vt 0.271492 0.999570
vt 0.322233 0.965927
vt 0.833477 0.839444
vt 0.003012 0.201539
s 0
usemtl Material_0
f 5/1/1 1/2/1 3/3/1
f 3/4/2 1/5/2 9/6/2
f 14/7/3 3/3/3 4/8/3
f 5/1/4 3/3/4 14/7/4
f 5/9/5 18/10/5 1/11/5
f 3/4/6 10/12/6 4/13/6
f 1/11/7 18/10/7 25/14/7
f 1/15/8 25/16/8 9/17/8
f 2/18/9 7/19/9 4/13/9
f 10/12/10 3/4/10 17/20/10
f 9/6/11 17/20/11 3/4/11
f 10/12/12 2/18/12 4/13/12
f 5/9/13 19/21/13 18/10/13
f 19/22/14 5/1/14 14/7/14
f 17/20/15 9/6/15 6/23/15
f 14/7/16 4/8/16 7/24/16
f 8/25/17 9/17/17 25/16/17
f 6/26/18 9/17/18 8/25/18
f 15/27/19 2/18/19 10/12/19
f 2/18/20 11/28/20 7/19/20
f 10/12/21 17/20/21 15/27/21
f 7/24/22 13/29/22 14/7/22
f 7/19/23 11/28/23 16/30/23
f 11/28/24 2/18/24 15/27/24
f 14/7/25 12/31/25 19/22/25
f 13/29/26 22/32/26 14/7/26
f 11/28/27 15/27/27 16/30/27
f 17/20/28 6/23/28 15/27/28
f 14/7/29 22/32/29 20/33/29
f 18/10/30 19/21/30 24/34/30
f 67/35/31 6/26/31 8/25/31
f 7/19/32 16/30/32 13/36/32
f 36/37/33 12/31/33 14/7/33
f 20/33/34 36/37/34 14/7/34
f 6/23/35 58/38/35 15/27/35
f 12/39/36 36/40/36 34/41/36
f 34/41/37 24/34/37 19/21/37
f 19/21/38 12/39/38 34/41/38
f 21/42/39 13/36/39 16/30/39
f 16/30/40 35/43/40 21/42/40
f 15/27/41 23/44/41 16/30/41
f 25/14/42 18/10/42 42/45/42
f 22/32/43 13/29/43 45/46/43
f 13/29/44 21/47/44 45/46/44
f 50/48/45 23/44/45 15/27/45
f 18/10/46 24/34/46 42/45/46
f 42/49/47 29/50/47 25/16/47
f 8/25/48 25/16/48 29/50/48
f 16/30/49 23/44/49 35/43/49
f 58/51/50 6/26/50 67/35/50
f 67/35/51 8/25/51 41/52/51
f 15/27/52 58/38/52 50/48/52
f 33/53/53 24/34/53 34/41/53
f 26/54/54 36/37/54 20/33/54
f 22/32/55 26/54/55 20/33/55
f 27/55/56 28/56/56 31/57/56
f 37/58/57 28/56/57 27/55/57
f 23/44/58 55/59/58 35/43/58
f 27/60/59 30/61/59 43/62/59
f 31/57/60 30/63/60 27/55/60
f 29/50/61 41/52/61 8/25/61
f 30/64/62 31/65/62 61/66/62
f 47/67/63 31/65/63 28/68/63
f 43/62/64 32/69/64 27/60/64
f 32/70/65 37/58/65 27/55/65
f 39/71/66 33/53/66 32/72/66
f 32/72/67 33/53/67 34/41/67
f 34/41/68 46/73/68 32/72/68
f 35/43/69 70/74/69 21/42/69
f 37/75/70 47/76/70 28/77/70
f 46/78/71 37/58/71 32/70/71
f 36/40/72 68/79/72 34/41/72
f 46/80/73 38/81/73 37/75/73
f 23/44/74 50/48/74 55/59/74
f 37/75/75 38/81/75 47/76/75
f 33/53/76 40/82/76 24/34/76
f 40/82/77 33/53/77 39/71/77
f 40/83/78 29/50/78 42/49/78
f 41/52/79 29/50/79 54/84/79
f 45/46/80 44/85/80 22/32/80
f 32/69/81 64/86/81 52/87/81
f 39/88/82 52/89/82 56/90/82
f 32/69/83 52/87/83 39/91/83
f 68/79/84 56/92/84 34/41/84
f 42/45/85 24/34/85 40/82/85
f 55/59/86 70/74/86 35/43/86
f 43/62/87 30/61/87 61/93/87
f 40/83/88 54/84/88 29/50/88
f 44/85/89 26/54/89 22/32/89
f 44/85/90 45/46/90 49/94/90
f 56/95/91 46/80/91 34/96/91
f 41/52/92 54/84/92 72/97/92
f 62/98/93 31/65/93 47/67/93
f 62/98/94 47/67/94 57/99/94
f 64/86/95 32/69/95 43/62/95
f 57/100/96 47/76/96 38/81/96
f 52/87/97 64/86/97 48/101/97
f 39/71/98 56/92/98 40/82/98
f 41/52/99 72/97/99 69/102/99
f 21/47/100 49/94/100 45/46/100
f 50/103/101 58/51/101 78/104/101
f 70/105/102 49/106/102 21/107/102
f 26/108/103 68/79/103 36/40/103
f 38/81/104 46/80/104 51/109/104
f 52/110/105 48/111/105 51/112/105
f 51/113/106 56/90/106 52/89/106
f 40/82/107 56/92/107 53/114/107
f 40/82/108 53/114/108 54/115/108
f 61/66/109 31/65/109 62/98/109
f 53/114/110 56/92/110 84/116/110
f 54/115/111 53/114/111 76/117/111
f 54/115/112 76/117/112 72/118/112
f 41/52/113 69/102/113 67/35/113
f 70/105/114 81/119/114 49/106/114
f 50/103/115 78/104/115 55/120/115
f 46/80/116 56/95/116 51/109/116
f 51/109/117 74/121/117 38/81/117
f 48/111/118 71/122/118 51/112/118
f 56/92/119 68/79/119 84/116/119
f 57/99/120 60/123/120 62/98/120
f 38/81/121 60/124/121 57/100/121
f 51/112/122 71/122/122 74/125/122
f 67/35/123 59/126/123 58/51/123
f 58/51/124 59/126/124 78/104/124
f 60/123/125 61/66/125 62/98/125
f 43/62/126 61/93/126 63/127/126
f 43/62/127 63/127/127 64/86/127
f 63/127/128 65/128/128 64/86/128
f 63/129/129 60/130/129 65/131/129
f 38/81/130 65/132/130 60/124/130
f 71/133/131 76/117/131 53/114/131
f 26/134/132 66/135/132 68/136/132
f 59/126/133 67/35/133 69/102/133
f 74/137/134 65/138/134 38/139/134
f 75/140/135 48/101/135 64/86/135
f 84/116/136 71/133/136 53/114/136
f 49/141/137 82/142/137 44/143/137
f 60/123/138 63/144/138 61/66/138
f 75/140/139 64/86/139 65/128/139
f 75/140/140 71/145/140 48/101/140
f 84/116/141 74/146/141 71/133/141
f 66/135/142 84/147/142 68/136/142
f 69/102/143 72/97/143 79/148/143
f 81/119/144 70/105/144 55/149/144
f 77/150/145 71/133/145 75/151/145
f 77/150/146 76/117/146 71/133/146
f 72/118/147 76/117/147 73/152/147
f 74/137/148 75/153/148 65/138/148
f 44/143/149 85/154/149 26/134/149
f 69/102/150 93/155/150 59/126/150
f 76/117/151 77/150/151 73/152/151
f 66/135/152 26/134/152 85/154/152
f 82/156/153 49/106/153 81/119/153
f 87/157/154 59/158/154 93/159/154
f 82/142/155 85/154/155 44/143/155
f 75/153/156 74/137/156 77/160/156
f 59/158/157 87/157/157 78/161/157
f 78/161/158 88/162/158 55/149/158
f 72/97/159 73/163/159 79/148/159
f 78/161/160 87/157/160 88/162/160
f 83/164/161 74/137/161 84/147/161
f 85/154/162 82/142/162 80/165/162
f 81/119/163 80/166/163 82/156/163
f 81/119/164 55/149/164 88/162/164
f 74/137/165 83/164/165 77/160/165
f 84/147/166 66/135/166 83/164/166
f 92/167/167 66/135/167 90/168/167
f 79/169/168 73/152/168 89/170/168
f 90/168/169 66/135/169 85/154/169
f 85/154/170 80/165/170 90/168/170
f 86/171/171 91/172/171 87/157/171
f 80/166/172 81/119/172 88/162/172
f 93/159/173 86/171/173 87/157/173
f 73/152/174 77/150/174 89/170/174
f 87/157/175 91/172/175 88/162/175
f 88/162/176 91/172/176 80/166/176
f 66/135/177 92/167/177 83/164/177
f 89/173/178 77/160/178 83/164/178
f 93/155/179 69/102/179 79/148/179
f 90/174/180 80/166/180 91/172/180
f 92/175/181 90/174/181 91/172/181
f 91/172/182 86/171/182 92/175/182
f 79/148/183 89/176/183 94/177/183
f 94/177/184 93/155/184 79/148/184
f 83/164/185 92/167/185 89/173/185
f 94/178/186 86/171/186 93/159/186
f 89/173/187 92/167/187 94/179/187
f 86/171/188 94/178/188 92/175/188
