# Blender 4.0.0
# www.blender.org
mtllib temp.mtl
o Mesh_0
v -0.087713 -0.122810 -0.325557
v 0.038243 0.128185 -0.285350
v 0.038062 0.024413 -0.230425
v 0.054523 0.273439 -0.181242
v -0.063559 0.059670 -0.211874
v 0.002774 0.086603 -0.269244
v 0.032164 0.065055 -0.220745
v 0.019093 -0.156509 -0.304014
v 0.128427 0.077412 -0.176454
v 0.188496 0.048473 -0.101727
v -0.126077 0.122986 -0.252030
v -0.176230 0.075110 -0.124502
v -0.124907 0.098203 -0.246554
v -0.187092 -0.145866 -0.304244
v -0.049370 0.280074 -0.170956
v -0.158322 0.036793 -0.142749
v 0.102619 0.139613 -0.255026
v -0.093209 0.321052 -0.157084
v 0.000943 0.366987 -0.174889
v 0.313014 -0.182150 -0.078710
v 0.079118 0.337939 -0.179679
v 0.209248 0.152873 -0.152723
v 0.145015 0.353780 -0.102092
v 0.030500 0.585410 -0.026081
v -0.189466 0.160340 -0.109305
v 0.125273 -0.195639 -0.164730
v 0.133597 -0.095708 -0.299132
v 0.021608 -0.580063 -0.077074
v -0.010317 -0.549285 -0.083271
v 0.052655 -0.547445 -0.072621
v 0.093558 -0.559795 0.010421
v 0.294064 0.094058 -0.049547
v -0.002389 -0.353238 -0.053494
v 0.054119 -0.371450 -0.041140
v -0.202423 0.047204 0.021968
v -0.122904 0.273022 -0.086510
v -0.113033 0.377481 -0.082601
v -0.000476 0.588520 -0.031434
v 0.043624 -0.219451 -0.084965
v -0.041633 -0.567298 -0.046110
v 0.028240 -0.602080 -0.000816
v 0.024168 -0.260651 -0.059938
v 0.070263 -0.235807 -0.022567
v -0.030457 -0.585499 0.037558
v -0.165713 -0.185699 -0.290124
v -0.313962 -0.192840 0.038653
v 0.190983 0.311021 -0.019621
v -0.031126 -0.218556 -0.075017
v 0.169188 0.271223 -0.076635
v 0.177492 0.287109 -0.010601
v 0.344582 -0.143887 -0.051350
v 0.225424 0.065478 0.006148
v -0.052945 -0.548405 0.037691
v 0.254210 0.140657 0.067383
v 0.016009 -0.337720 0.047581
v 0.065727 -0.380916 0.005501
v -0.344049 -0.158672 0.033921
v -0.208509 -0.014803 0.092518
v 0.019839 -0.580402 0.064237
v -0.027050 -0.261538 -0.010208
v 0.056013 -0.242565 0.030982
v -0.029936 -0.226801 0.043847
v 0.000876 -0.547752 0.075998
v -0.050491 -0.198547 0.245622
v -0.075192 0.384952 0.103603
v 0.225079 0.015880 -0.012007
v -0.156774 0.320470 0.009375
v 0.145865 0.367717 0.072730
v 0.058670 -0.548951 0.061794
v -0.034479 0.314009 0.171270
v -0.150125 0.266577 0.026170
v -0.111273 0.271176 0.090173
v 0.184967 0.123363 0.195764
v 0.026177 0.524006 0.051219
v 0.166951 0.018886 0.140003
v -0.008658 0.580434 0.001678
v 0.115384 0.318906 0.144885
v 0.032310 0.344998 0.162942
v -0.091465 -0.150255 0.326610
v -0.102910 0.133966 0.210182
v -0.031312 0.276459 0.149170
v 0.141939 0.274256 0.095404
v 0.133102 0.069800 0.161635
v -0.124079 -0.115337 0.294170
v -0.018809 0.058781 0.202289
v -0.047454 0.101672 0.261218
v 0.215823 -0.152891 0.274451
v 0.091974 -0.210722 0.089658
v -0.268029 0.087341 0.036095
v 0.078040 -0.024302 0.239275
v -0.114286 0.049341 0.159389
v -0.056001 0.005144 0.215745
v 0.097395 0.098767 0.234913
v 0.081546 0.277333 0.141939
v -0.130558 0.092002 0.174935
v -0.035237 0.065153 0.243728
vn -0.1079 -0.3831 -0.9174
vn 0.0148 -0.5047 -0.8632
vn 0.1386 -0.1829 -0.9733
vn 0.0373 0.5248 -0.8504
vn -0.2938 0.5331 -0.7934
vn -0.1878 -0.2113 -0.9592
vn 0.4223 -0.6173 -0.6638
vn 0.0189 0.5077 -0.8613
vn 0.4460 -0.6859 -0.5750
vn -0.5622 0.5957 -0.5736
vn -0.1788 0.5863 -0.7901
vn -0.1900 -0.2204 -0.9567
vn 0.4130 0.6769 -0.6093
vn 0.0130 -0.9108 -0.4126
vn -0.1021 0.2164 -0.9709
vn -0.1750 -0.7978 -0.5769
vn 0.3745 0.2659 -0.8883
vn 0.2789 0.5386 -0.7951
vn 0.1201 -0.9281 -0.3523
vn 0.6316 -0.4015 -0.6632
vn -0.8810 -0.1414 -0.4515
vn -0.0561 0.4794 -0.8758
vn -0.3677 -0.8732 -0.3198
vn 0.3825 -0.6592 -0.6475
vn -0.7567 -0.5379 -0.3716
vn -0.0978 0.0116 -0.9951
vn -0.0457 0.0416 -0.9981
vn -0.7897 -0.4497 -0.4172
vn -0.6017 0.0964 -0.7929
vn 0.3962 -0.6982 -0.5963
vn 0.5712 0.5441 -0.6146
vn 0.5260 0.5787 -0.6232
vn -0.2259 0.0868 -0.9703
vn -0.6859 0.5690 -0.4536
vn -0.6402 -0.4825 -0.5978
vn 0.5020 -0.5902 -0.6321
vn -0.3898 0.4988 -0.7741
vn 0.7402 -0.1405 -0.6576
vn 0.6532 -0.2316 -0.7209
vn 0.2642 -0.8571 -0.4422
vn -0.8169 0.4489 -0.3622
vn 0.1510 0.5425 -0.8263
vn 0.6897 -0.2171 -0.6908
vn 0.7598 0.0221 -0.6498
vn 0.1957 0.5339 -0.8226
vn -0.6873 -0.6501 -0.3240
vn -0.6710 0.5060 -0.5420
vn 0.0426 -0.9833 -0.1769
vn 0.5487 -0.5468 -0.6324
vn -0.0562 -0.9395 -0.3380
vn 0.6059 0.5021 -0.6171
vn 0.7219 0.4476 -0.5277
vn -0.4467 -0.5974 -0.6660
vn 0.1674 -0.0248 -0.9856
vn 0.1610 0.1418 -0.9767
vn 0.6839 -0.5929 -0.4251
vn -0.7875 0.1235 -0.6038
vn 0.0929 -0.9946 -0.0468
vn 0.7852 0.6115 -0.0980
vn -0.8968 0.1129 -0.4278
vn 0.7870 0.4993 -0.3623
vn -0.8297 0.5272 -0.1836
vn 0.2619 0.1678 -0.9504
vn 0.1755 -0.1184 -0.9773
vn 0.6763 -0.5885 -0.4430
vn -0.1218 -0.4727 -0.8728
vn -0.9194 -0.3221 -0.2258
vn -0.5439 -0.8011 -0.2499
vn -0.9393 0.2700 -0.2115
vn -0.9251 0.1406 -0.3528
vn -0.6726 0.4926 -0.5522
vn -0.4476 -0.7579 -0.4745
vn 0.2588 -0.9657 -0.0234
vn 0.8931 0.1286 -0.4311
vn 0.8448 0.4890 -0.2173
vn -0.3036 -0.9221 -0.2398
vn 0.5554 -0.7848 -0.2749
vn -0.6902 0.1487 -0.7082
vn 0.6183 0.0339 -0.7852
vn -0.8659 0.4883 -0.1091
vn -0.3596 -0.9206 -0.1522
vn 0.8990 0.0699 -0.4324
vn -0.1205 -0.9898 -0.0758
vn 0.8698 0.4182 -0.2617
vn -0.1172 -0.9908 -0.0676
vn 0.8569 0.5038 0.1094
vn -0.7412 0.1130 -0.6617
vn 0.9667 0.1446 -0.2112
vn 0.9634 -0.0796 -0.2559
vn 0.8722 -0.4891 0.0080
vn -0.9108 -0.2210 -0.3486
vn -0.9961 -0.0887 0.0038
vn -0.8277 0.5351 -0.1693
vn 0.9077 0.3676 -0.2026
vn 0.0539 0.9669 0.2494
vn 0.6575 -0.7142 0.2401
vn 0.9338 0.1173 -0.3381
vn 0.3919 -0.9200 0.0109
vn 0.8132 0.5802 0.0459
vn -0.8662 0.4907 -0.0942
vn -0.8551 -0.5184 0.0014
vn -0.9869 0.0644 -0.1477
vn -0.8045 0.5390 -0.2495
vn 0.8809 -0.4040 0.2465
vn 0.3313 0.7297 0.5982
vn -0.0670 -0.9491 0.3076
vn 0.8325 0.1442 0.5349
vn 0.9655 0.0200 0.2595
vn 0.7569 0.5683 0.3228
vn 0.9085 0.0465 0.4153
vn 0.7255 0.1910 0.6611
vn 0.5867 -0.1066 0.8027
vn -0.7420 0.5340 0.4053
vn -0.8553 0.0550 0.5152
vn 0.4714 -0.8166 0.3330
vn 0.7887 0.5478 0.2790
vn -0.6589 0.1814 0.7300
vn -0.9094 -0.3703 0.1894
vn 0.1278 -0.9729 0.1927
vn 0.2340 -0.9615 0.1441
vn -0.5745 0.1503 0.8046
vn 0.1655 0.1016 0.9810
vn -0.4034 -0.8095 0.4266
vn 0.2394 0.1132 0.9643
vn -0.1616 -0.9795 0.1207
vn -0.1200 -0.9848 0.1257
vn -0.7659 0.2582 0.5888
vn 0.9071 0.0819 0.4129
vn -0.8011 0.4675 0.3737
vn -0.3670 -0.4965 0.7867
vn -0.5442 -0.3326 0.7702
vn 0.7986 0.5247 0.2950
vn -0.7898 0.1204 0.6014
vn 0.6579 0.5714 0.4907
vn 0.5584 -0.6493 0.5163
vn 0.2293 -0.2092 0.9506
vn 0.5870 -0.7308 0.3483
vn -0.2704 0.5355 0.8001
vn 0.9243 -0.1368 0.3562
vn 0.8519 -0.3172 0.4167
vn -0.7485 0.5155 0.4173
vn -0.5040 -0.4693 0.7251
vn 0.5523 -0.7571 0.3490
vn 0.7249 0.5127 0.4601
vn 0.5871 0.5334 0.6089
vn -0.3078 -0.8776 0.3676
vn 0.8129 0.3394 0.4733
vn -0.6972 0.5672 0.4384
vn -0.7440 -0.4603 0.4843
vn -0.3639 0.5250 0.7694
vn 0.3322 0.5076 0.7950
vn -0.6513 -0.4937 0.5763
vn 0.8063 0.4894 0.3322
vn -0.7073 0.4405 0.5529
vn 0.0644 -0.1226 0.9904
vn 0.5218 -0.4749 0.7086
vn -0.1367 0.5211 0.8425
vn -0.7521 -0.0969 0.6519
vn -0.5213 0.5436 0.6578
vn 0.1667 -0.4897 0.8558
vn 0.1759 -0.1164 0.9775
vn -0.7149 0.4585 0.5279
vn 0.5191 0.5710 0.6360
vn 0.2671 -0.2210 0.9380
vn -0.5261 0.6524 0.5455
vn -0.3336 -0.4325 0.8377
vn -0.3930 0.5217 0.7572
vn 0.1435 -0.9678 0.2067
vn -0.6333 0.1361 0.7618
vn 0.3583 0.6951 0.6233
vn -0.6865 -0.2361 0.6877
vn -0.7066 -0.1084 0.6992
vn 0.1807 -0.8814 0.4365
vn 0.4354 -0.7443 0.5064
vn 0.4217 0.6302 0.6519
vn -0.4037 -0.0643 0.9126
vn 0.2534 -0.9360 0.2444
vn -0.2918 -0.9560 0.0313
vn 0.0499 0.5357 0.8429
vn 0.0825 0.8239 0.5607
vn 0.2494 0.4646 0.8497
vn -0.5949 -0.5003 0.6291
vn 0.1576 -0.3832 0.9101
vn 0.1671 0.4670 0.8684
vn 0.1559 0.4125 0.8975
vn -0.0146 0.5829 0.8124
vn 0.0848 -0.8364 0.5416
vn -0.1464 0.5964 0.7892
vt 0.380486 0.975406
vt 0.311831 0.970668
vt 0.308603 0.999557
vt 0.418167 0.912185
vt 0.496881 0.884375
vt 0.761440 0.435701
vt 0.904189 0.340317
vt 0.892529 0.484486
vt 0.958372 0.695479
vt 0.999554 0.748301
vt 0.834670 0.758954
vt 0.890820 0.551064
vt 0.918953 0.572166
vt 0.906919 0.654135
vt 0.895957 0.505993
vt 0.802363 0.378403
vt 0.951677 0.550860
vt 0.863106 0.830602
vt 0.504273 0.002216
vt 0.506684 0.111259
vt 0.388069 0.002216
vt 0.923067 0.651974
vt 0.766653 0.254952
vt 0.956903 0.613793
vt 0.978931 0.551359
vt 0.958843 0.479454
vt 0.610016 0.636534
vt 0.522359 0.701818
vt 0.490642 0.664302
vt 0.419204 0.796521
vt 0.996881 0.426652
vt 0.414281 0.748670
vt 0.532676 0.577825
vt 0.398515 0.741868
vt 0.386553 0.070662
vt 0.996881 0.696365
vt 0.090950 0.876833
vt 0.332888 0.039751
vt 0.649639 0.622391
vt 0.643776 0.572599
vt 0.475824 0.685316
vt 0.838078 0.845953
vt 0.491847 0.684429
vt 0.681296 0.714399
vt 0.596146 0.770341
vt 0.360410 0.101111
vt 0.432586 0.642567
vt 0.306234 0.656083
vt 0.297877 0.619869
vt 0.354107 0.597799
vt 0.169786 0.472773
vt 0.231158 0.626990
vt 0.904189 0.148950
vt 0.872421 0.130762
vt 0.999554 0.988918
vt 0.802819 0.534798
vt 0.986349 0.345301
vt 0.920087 0.413099
vt 0.698540 0.659100
vt 0.803863 0.517287
vt 0.109757 0.854031
vt 0.301897 0.806053
vt 0.344919 0.783051
vt 0.563103 0.788936
vt 0.514269 0.791103
vt 0.541014 0.767287
vt 0.970620 0.285018
vt 0.947089 0.268210
vt 0.987968 0.261630
vt 0.937843 0.140196
vt 0.592246 0.797784
vt 0.592246 0.860172
vt 0.915516 0.279261
vt 0.712417 0.226180
vt 0.621625 0.381823
vt 0.578193 0.222074
vt 0.755150 0.190103
vt 0.639784 0.862306
vt 0.976752 0.147930
vt 0.950859 0.079149
vt 0.544118 0.295492
vt 0.571611 0.276101
vt 0.577252 0.320682
vt 0.317895 0.763073
vt 0.845842 0.939593
vt 0.137847 0.503668
vt 0.086898 0.500444
vt 0.166221 0.410018
vt 0.395370 0.529259
vt 0.295236 0.560547
vt 0.358894 0.526204
vt 0.271745 0.765820
vt 0.310192 0.671355
vt 0.729021 0.712929
vt 0.548377 0.837115
vt 0.905080 0.081015
vt 0.987968 0.061614
vt 0.504011 0.848177
vt 0.654563 0.159323
vt 0.550530 0.084898
vt 0.540553 0.144015
vt 0.700089 0.000443
vt 0.727497 0.072252
vt 0.897950 0.000443
vt 0.798223 0.694790
vt 0.660507 0.127802
vt 0.740351 0.183954
vt 0.727734 0.729171
vt 0.779412 0.986589
vt 0.753205 0.941070
vt 0.779412 0.907520
vt 0.732033 0.854425
vt 0.829286 0.527394
vt 0.748217 0.460068
vt 0.748217 0.234456
vt 0.721479 0.195866
vt 0.018077 0.606525
vt 0.060456 0.563989
vt 0.096702 0.628989
vt 0.185054 0.456634
vt 0.565466 0.935634
vt 0.558118 0.989805
vt 0.538784 0.932852
vt 0.800150 0.753834
vt 0.840909 0.580627
vt 0.531153 0.877216
vt 0.574769 0.053861
vt 0.751529 0.148772
vt 0.840909 0.732803
vt 0.703642 0.100158
vt 0.278239 0.157941
vt 0.332888 0.005762
vt 0.244959 0.106682
vt 0.400812 0.475747
vt 0.856061 0.020833
vt 0.701733 0.895545
vt 0.579696 0.511536
vt 0.561747 0.894553
vt 0.439840 0.341350
vt 0.488859 0.371897
vt 0.488859 0.293883
vt 0.136867 0.616578
vt 0.591946 0.020833
vt 0.066988 0.642287
vt 0.191232 0.688418
vt 0.224748 0.642287
vt 0.374581 0.401611
vt 0.327604 0.446207
vt 0.533422 0.892287
vt 0.246700 0.255357
vt 0.430036 0.339304
vt 0.350938 0.234391
vt 0.564619 0.024606
vt 0.044924 0.434420
vt 0.220202 0.419072
vt 0.333931 0.207004
vt 0.008467 0.521917
vt 0.398255 0.409665
vt 0.094849 0.452478
vt 0.830420 0.878103
vt 0.000446 0.644437
vt 0.223630 0.220663
vt 0.172737 0.153285
vt 0.166221 0.605304
vt 0.377332 0.154245
vt 0.225045 0.176196
vt 0.356047 0.205837
vt 0.209198 0.396720
vt 0.508442 0.418419
vt 0.406943 0.172243
vt 0.399366 0.246148
vt 0.404803 0.122784
vt 0.341821 0.369238
vt 0.081251 0.005762
vt 0.112096 0.026050
vt 0.372236 0.248633
vt 0.523473 0.122784
vt 0.125958 0.207004
vt 0.118015 0.128129
vt 0.108798 0.178912
vt 0.187277 0.181294
vt 0.529225 0.369238
vt 0.159674 0.283743
vt 0.533422 0.448591
vt 0.226259 0.783590
vt 0.257213 0.707281
vt 0.277629 0.807181
vt 0.096702 0.396720
vt 0.028075 0.146262
vt 0.230451 0.695048
vt 0.277629 0.632535
vt 0.530044 0.279699
vt 0.539008 0.184516
vt 0.211676 0.674946
vt 0.556595 0.271897
vt 0.019162 0.329791
vt 0.584262 0.577571
s 0
usemtl Material_0
f 1/1/1 45/2/1 14/3/1
f 45/2/2 1/1/2 8/4/2
f 8/4/3 1/1/3 27/5/3
f 5/6/4 27/7/4 1/8/4
f 1/9/5 14/10/5 5/11/5
f 2/12/6 6/13/6 11/14/6
f 6/13/7 2/12/7 17/15/7
f 3/16/8 27/7/8 5/6/8
f 7/17/9 6/13/9 17/15/9
f 16/18/10 5/11/10 14/10/10
f 2/19/11 11/20/11 4/21/11
f 11/14/12 6/13/12 13/22/12
f 27/7/13 3/16/13 10/23/13
f 6/13/14 7/17/14 5/24/14
f 3/25/15 5/24/15 7/17/15
f 5/24/16 13/22/16 6/13/16
f 7/17/17 9/26/17 3/25/17
f 4/27/18 17/28/18 2/29/18
f 8/4/19 26/30/19 45/2/19
f 3/25/20 9/26/20 10/31/20
f 13/32/21 89/33/21 11/34/21
f 15/35/22 4/21/22 11/20/22
f 12/36/23 13/22/23 5/24/23
f 17/15/24 9/26/24 7/17/24
f 57/37/25 14/3/25 45/2/25
f 4/21/26 15/35/26 19/38/26
f 21/39/27 4/27/27 19/40/27
f 89/33/28 13/32/28 12/41/28
f 12/42/29 5/11/29 16/18/29
f 20/43/30 8/4/30 27/5/30
f 49/44/31 17/28/31 4/27/31
f 17/28/32 49/44/32 22/45/32
f 18/46/33 19/38/33 15/35/33
f 25/47/34 15/48/34 11/34/34
f 18/49/35 15/48/35 36/50/35
f 9/26/36 17/15/36 10/31/36
f 38/51/37 19/52/37 18/49/37
f 20/53/38 27/7/38 51/54/38
f 4/27/39 21/39/39 49/44/39
f 8/4/40 20/43/40 26/30/40
f 14/10/41 57/55/41 16/18/41
f 19/40/42 24/56/42 21/39/42
f 32/57/43 17/15/43 22/58/43
f 49/44/44 21/39/44 23/59/44
f 38/60/45 24/56/45 19/40/45
f 45/2/46 46/61/46 57/37/46
f 25/47/47 36/50/47 15/48/47
f 45/2/48 26/30/48 48/62/48
f 17/15/49 32/57/49 10/31/49
f 39/63/50 48/62/50 26/30/50
f 24/56/51 23/59/51 21/39/51
f 10/23/52 51/54/52 27/7/52
f 28/64/53 40/65/53 29/66/53
f 28/67/54 29/68/54 30/69/54
f 33/70/55 30/69/55 29/68/55
f 28/64/56 30/71/56 31/72/56
f 33/70/57 29/68/57 40/73/57
f 20/74/58 88/75/58 26/76/58
f 51/54/59 10/23/59 66/77/59
f 11/34/60 89/33/60 25/47/60
f 49/44/61 32/78/61 22/45/61
f 25/47/62 89/33/62 36/50/62
f 30/69/63 33/70/63 34/79/63
f 33/70/64 42/80/64 34/79/64
f 42/81/65 39/82/65 43/83/65
f 48/62/66 39/63/66 42/84/66
f 16/18/67 35/85/67 12/42/67
f 35/86/68 89/87/68 12/88/68
f 18/49/69 36/50/69 71/89/69
f 37/90/70 18/49/70 67/91/70
f 18/49/71 37/90/71 38/51/71
f 42/84/72 60/92/72 48/62/72
f 26/30/73 88/93/73 39/63/73
f 49/44/74 23/59/74 47/94/74
f 23/59/75 24/56/75 47/94/75
f 40/65/76 28/64/76 41/95/76
f 31/72/77 41/95/77 28/64/77
f 60/96/78 42/80/78 33/70/78
f 43/97/79 34/79/79 42/80/79
f 38/51/80 37/90/80 67/91/80
f 40/65/81 41/95/81 44/98/81
f 34/99/82 31/100/82 30/101/82
f 45/2/83 48/62/83 46/61/83
f 88/75/84 43/83/84 39/82/84
f 48/102/85 62/103/85 46/104/85
f 47/94/86 24/56/86 68/105/86
f 60/96/87 33/70/87 40/73/87
f 56/106/88 31/100/88 34/99/88
f 43/107/89 56/106/89 34/99/89
f 47/94/90 50/108/90 49/44/90
f 71/89/91 67/91/91 18/49/91
f 48/109/92 60/110/92 62/111/92
f 36/50/93 89/33/93 71/89/93
f 49/44/94 50/108/94 54/112/94
f 76/113/95 24/56/95 38/60/95
f 87/114/96 20/74/96 51/115/96
f 52/116/97 66/77/97 10/23/97
f 32/117/98 52/118/98 10/119/98
f 49/44/99 54/112/99 32/78/99
f 76/120/100 38/51/100 67/91/100
f 53/121/101 40/122/101 44/123/101
f 60/110/102 40/122/102 53/121/102
f 57/55/103 35/85/103 16/18/103
f 50/108/104 47/94/104 82/124/104
f 76/113/105 74/125/105 24/56/105
f 59/126/106 44/98/106 41/95/106
f 31/100/107 56/106/107 69/127/107
f 43/107/108 61/128/108 56/106/108
f 50/108/109 82/124/109 54/112/109
f 68/105/110 77/129/110 47/94/110
f 56/106/111 55/130/111 69/127/111
f 61/128/112 55/130/112 56/106/112
f 35/131/113 57/132/113 58/133/113
f 71/89/114 72/134/114 67/91/114
f 31/72/115 59/126/115 41/95/115
f 61/128/116 43/107/116 64/135/116
f 53/121/117 55/136/117 60/110/117
f 55/136/118 62/111/118 60/110/118
f 88/75/119 64/137/119 43/83/119
f 88/75/120 20/74/120 87/114/120
f 55/136/121 53/121/121 63/138/121
f 61/139/122 62/140/122 55/141/122
f 89/87/123 35/86/123 95/142/123
f 69/127/124 55/130/124 63/143/124
f 64/144/125 62/145/125 61/146/125
f 62/145/126 64/144/126 46/61/126
f 72/134/127 70/147/127 67/91/127
f 82/124/128 47/94/128 77/129/128
f 65/148/129 76/120/129 67/91/129
f 59/149/130 63/138/130 44/123/130
f 53/121/131 44/123/131 63/138/131
f 75/150/132 51/151/132 66/152/132
f 67/91/133 70/147/133 65/148/133
f 68/105/134 24/56/134 74/125/134
f 31/100/135 69/127/135 59/153/135
f 59/153/136 69/127/136 63/143/136
f 73/154/137 52/118/137 32/117/137
f 74/155/138 76/120/138 70/147/138
f 52/156/139 75/150/139 66/152/139
f 73/154/140 32/117/140 54/157/140
f 71/89/141 89/33/141 72/134/141
f 81/158/142 70/147/142 72/134/142
f 73/154/143 83/159/143 52/118/143
f 54/112/144 82/124/144 73/160/144
f 68/105/145 74/125/145 77/129/145
f 46/61/146 64/144/146 79/161/146
f 52/156/147 83/162/147 75/150/147
f 35/131/148 58/133/148 91/163/148
f 91/164/149 95/142/149 35/86/149
f 65/148/150 70/147/150 76/120/150
f 77/165/151 74/166/151 78/167/151
f 46/61/152 79/161/152 57/37/152
f 87/168/153 51/151/153 75/150/153
f 89/33/154 80/169/154 72/134/154
f 94/170/155 77/165/155 81/171/155
f 77/165/156 94/170/156 82/172/156
f 74/155/157 70/147/157 78/173/157
f 79/174/158 84/175/158 57/132/158
f 80/169/159 81/158/159 72/134/159
f 77/165/160 70/176/160 81/171/160
f 77/165/161 78/167/161 70/176/161
f 57/132/162 84/175/162 58/133/162
f 94/170/163 73/177/163 82/172/163
f 83/162/164 85/178/164 75/150/164
f 92/179/165 58/133/165 84/175/165
f 91/163/166 85/180/166 95/181/166
f 81/158/167 80/169/167 86/182/167
f 87/114/168 64/137/168 88/75/168
f 58/133/169 92/179/169 91/163/169
f 90/183/170 75/150/170 85/178/170
f 95/184/171 86/182/171 89/33/171
f 86/182/172 80/169/172 89/33/172
f 93/185/173 85/186/173 83/187/173
f 93/188/174 83/159/174 73/154/174
f 75/150/175 90/183/175 87/168/175
f 85/180/176 91/163/176 90/189/176
f 93/185/177 96/190/177 85/186/177
f 95/191/178 85/186/178 96/190/178
f 86/192/179 94/170/179 81/171/179
f 92/179/180 90/189/180 91/163/180
f 93/193/181 73/177/181 94/170/181
f 86/194/182 95/191/182 96/190/182
f 96/195/183 93/193/183 86/192/183
f 93/193/184 94/170/184 86/192/184
f 87/168/185 90/183/185 79/196/185
f 90/189/186 92/179/186 79/174/186
f 87/114/187 79/197/187 64/137/187
f 92/179/188 84/175/188 79/174/188
